<svg width="89" height="28" viewBox="0 0 89 28" fill="none" xmlns="http://www.w3.org/2000/svg">
<path d="M8.89062 6.59375C8.89062 6.95833 8.94792 7.26042 9.0625 7.5C9.17708 7.72917 9.31771 7.92708 9.48438 8.09375C9.66146 8.25 9.84896 8.38021 10.0469 8.48438C10.2448 8.58854 10.4271 8.69792 10.5938 8.8125C10.7708 8.92708 10.9167 9.05729 11.0312 9.20312C11.1458 9.34896 11.2031 9.53646 11.2031 9.76562C11.2031 10.151 11.0677 10.4479 10.7969 10.6562C10.526 10.8542 10.2135 10.9531 9.85938 10.9531C9.52604 10.9531 9.21354 10.849 8.92188 10.6406C8.64062 10.4323 8.39062 10.151 8.17188 9.79688C7.96354 9.43229 7.79688 9.01042 7.67188 8.53125C7.54688 8.04167 7.48438 7.52604 7.48438 6.98438C7.48438 6.31771 7.58854 5.68229 7.79688 5.07812C8.00521 4.46354 8.3125 3.92708 8.71875 3.46875C9.125 3 9.625 2.63021 10.2188 2.35938C10.8229 2.08854 11.5104 1.95312 12.2812 1.95312C12.8021 1.95312 13.3698 2.04167 13.9844 2.21875C14.599 2.38542 15.2083 2.65625 15.8125 3.03125C16.4271 3.40625 17.0156 3.89062 17.5781 4.48438C18.151 5.07812 18.6562 5.80208 19.0938 6.65625C19.5417 7.51042 19.8958 8.5 20.1562 9.625C20.4167 10.75 20.5469 12.026 20.5469 13.4531C20.5469 15.2969 20.2708 16.9479 19.7188 18.4062C19.1771 19.8646 18.4375 21.1042 17.5 22.125C16.5729 23.1354 15.4948 23.9115 14.2656 24.4531C13.0365 24.9844 11.7344 25.25 10.3594 25.25C8.99479 25.25 7.69271 25.0156 6.45312 24.5469C5.21354 24.0781 4.11979 23.3646 3.17188 22.4062C2.23438 21.4375 1.48438 20.2135 0.921875 18.7344C0.369792 17.2448 0.09375 15.4844 0.09375 13.4531C0.09375 11.8802 0.302083 10.4479 0.71875 9.15625C1.14583 7.86458 1.71354 6.71875 2.42188 5.71875C3.14062 4.71875 3.97396 3.88021 4.92188 3.20312C5.86979 2.51562 6.875 1.99479 7.9375 1.64062L8.46875 2.3125C8.16667 2.61458 7.88542 2.92708 7.625 3.25C7.36458 3.57292 7.125 3.94271 6.90625 4.35938C6.6875 4.76562 6.48958 5.23958 6.3125 5.78125C6.14583 6.3125 6.00521 6.94271 5.89062 7.67188C5.77604 8.39062 5.6875 9.22396 5.625 10.1719C5.5625 11.1198 5.53125 12.2135 5.53125 13.4531C5.53125 15.0573 5.61458 16.4271 5.78125 17.5625C5.95833 18.6979 6.18229 19.651 6.45312 20.4219C6.73438 21.1823 7.04688 21.7917 7.39062 22.25C7.74479 22.6979 8.09896 23.0365 8.45312 23.2656C8.80729 23.4948 9.15104 23.6458 9.48438 23.7188C9.81771 23.7812 10.1094 23.8125 10.3594 23.8125C10.6094 23.8125 10.8958 23.7812 11.2188 23.7188C11.5521 23.6458 11.8906 23.4948 12.2344 23.2656C12.5885 23.0365 12.9375 22.6979 13.2812 22.25C13.625 21.7917 13.9271 21.1823 14.1875 20.4219C14.4583 19.651 14.6771 18.6979 14.8438 17.5625C15.0104 16.4271 15.0938 15.0573 15.0938 13.4531C15.0938 12.0469 15.0312 10.8229 14.9062 9.78125C14.7812 8.73958 14.6146 7.84896 14.4062 7.10938C14.2083 6.36979 13.974 5.76562 13.7031 5.29688C13.4427 4.81771 13.1667 4.44271 12.875 4.17188C12.5938 3.89062 12.3073 3.69792 12.0156 3.59375C11.7344 3.48958 11.474 3.4375 11.2344 3.4375C10.8594 3.4375 10.526 3.52604 10.2344 3.70312C9.94271 3.88021 9.69792 4.11979 9.5 4.42188C9.30208 4.71354 9.15104 5.05208 9.04688 5.4375C8.94271 5.8125 8.89062 6.19792 8.89062 6.59375ZM28.875 11.75C29.2604 11.1979 29.6979 10.7031 30.1875 10.2656C30.3854 10.0781 30.6042 9.89583 30.8438 9.71875C31.0938 9.54167 31.3542 9.38542 31.625 9.25C31.9062 9.10417 32.1979 8.98958 32.5 8.90625C32.8125 8.82292 33.1302 8.78125 33.4531 8.78125C34.151 8.78125 34.776 8.91667 35.3281 9.1875C35.8802 9.45833 36.3438 9.91146 36.7188 10.5469C37.0938 11.1823 37.3802 12.026 37.5781 13.0781C37.776 14.1198 37.875 15.4167 37.875 16.9688C37.875 18.4792 37.7396 19.7917 37.4688 20.9062C37.1979 22.0208 36.8438 22.9688 36.4062 23.75C35.9688 24.5312 35.474 25.1667 34.9219 25.6562C34.3698 26.1562 33.8125 26.5469 33.25 26.8281C32.6875 27.1094 32.1458 27.3021 31.625 27.4062C31.1042 27.5208 30.6562 27.5833 30.2812 27.5938L30.125 26.9531C30.5938 26.8385 31.0104 26.625 31.375 26.3125C31.7396 26 32.0469 25.4896 32.2969 24.7812C32.5469 24.0625 32.7344 23.099 32.8594 21.8906C32.9948 20.6823 33.0625 19.125 33.0625 17.2188C33.0625 15.9062 33 14.8594 32.875 14.0781C32.7604 13.2865 32.6042 12.6875 32.4062 12.2812C32.2188 11.8646 32 11.5938 31.75 11.4688C31.5104 11.3333 31.2656 11.2656 31.0156 11.2656C30.7135 11.2656 30.4479 11.349 30.2188 11.5156C29.9896 11.6719 29.7865 11.8542 29.6094 12.0625C29.4427 12.2708 29.2969 12.4792 29.1719 12.6875C29.0573 12.8958 28.9583 13.0521 28.875 13.1562V23.5938C28.875 23.7292 28.8542 23.8958 28.8125 24.0938C28.7708 24.2812 28.6667 24.4635 28.5 24.6406C28.3438 24.8073 28.1042 24.9479 27.7812 25.0625C27.4688 25.1875 27.0365 25.25 26.4844 25.25C25.9323 25.25 25.4948 25.1823 25.1719 25.0469C24.849 24.9219 24.6042 24.7708 24.4375 24.5938C24.2812 24.4167 24.1823 24.2344 24.1406 24.0469C24.099 23.8594 24.0781 23.7083 24.0781 23.5938V3.4375C24.0781 3.13542 24.0052 2.875 23.8594 2.65625C23.724 2.42708 23.4896 2.3125 23.1562 2.3125C22.9792 2.3125 22.8229 2.34375 22.6875 2.40625C22.5625 2.45833 22.4271 2.54167 22.2812 2.65625L21.9688 2.28125C22.2083 2.08333 22.474 1.89062 22.7656 1.70312C23.0573 1.50521 23.375 1.33333 23.7188 1.1875C24.0729 1.04167 24.4479 0.921875 24.8438 0.828125C25.2396 0.734375 25.6562 0.6875 26.0938 0.6875C26.7708 0.6875 27.2969 0.78125 27.6719 0.96875C28.0469 1.14583 28.3229 1.36979 28.5 1.64062C28.6771 1.90104 28.7812 2.18229 28.8125 2.48438C28.8542 2.77604 28.875 3.03646 28.875 3.26562V11.75ZM48.3906 16.9062C48.3906 16.6458 48.3073 16.4479 48.1406 16.3125C47.974 16.1771 47.7604 16.1094 47.5 16.1094C47.1354 16.1094 46.7865 16.1927 46.4531 16.3594C46.1302 16.526 45.8438 16.7708 45.5938 17.0938C45.3438 17.4167 45.1458 17.8177 45 18.2969C44.8542 18.7656 44.7812 19.3125 44.7812 19.9375C44.7812 20.5417 44.8229 21.0417 44.9062 21.4375C45 21.8333 45.1198 22.151 45.2656 22.3906C45.4219 22.6198 45.599 22.7812 45.7969 22.875C45.9948 22.9688 46.2031 23.0156 46.4219 23.0156C46.6927 23.0156 46.9479 22.9479 47.1875 22.8125C47.4271 22.6667 47.6354 22.4844 47.8125 22.2656C47.9896 22.0469 48.1302 21.8021 48.2344 21.5312C48.3385 21.2604 48.3906 20.9896 48.3906 20.7188V16.9062ZM45.9062 10.0625C45.5521 10.0625 45.224 10.1042 44.9219 10.1875C44.6198 10.2708 44.3594 10.375 44.1406 10.5C43.9219 10.625 43.75 10.7656 43.625 10.9219C43.5 11.0677 43.4375 11.2083 43.4375 11.3438C43.4375 11.5 43.5156 11.6146 43.6719 11.6875C43.8385 11.75 44.0208 11.8281 44.2188 11.9219C44.4167 12.0052 44.5938 12.1302 44.75 12.2969C44.9167 12.4531 45 12.6979 45 13.0312C45 13.25 44.9531 13.4531 44.8594 13.6406C44.776 13.8177 44.6562 13.9792 44.5 14.125C44.3542 14.2604 44.1771 14.3698 43.9688 14.4531C43.7708 14.526 43.5625 14.5625 43.3438 14.5625C42.7604 14.5625 42.2865 14.3646 41.9219 13.9688C41.5677 13.5729 41.3906 13.0469 41.3906 12.3906C41.3906 11.7552 41.5573 11.2135 41.8906 10.7656C42.224 10.3073 42.6562 9.93229 43.1875 9.64062C43.7292 9.34896 44.3385 9.13542 45.0156 9C45.6927 8.85417 46.3698 8.78125 47.0469 8.78125C47.8594 8.78125 48.6354 8.86979 49.375 9.04688C50.1146 9.22396 50.7656 9.50521 51.3281 9.89062C51.901 10.276 52.3542 10.7656 52.6875 11.3594C53.0312 11.9531 53.2031 12.6719 53.2031 13.5156V22.3438C53.2031 22.4375 53.2083 22.5417 53.2188 22.6562C53.2292 22.7708 53.2552 22.875 53.2969 22.9688C53.3385 23.0625 53.401 23.1406 53.4844 23.2031C53.5677 23.2656 53.6875 23.2969 53.8438 23.2969C54.0312 23.2969 54.2031 23.2292 54.3594 23.0938C54.526 22.9479 54.6719 22.8021 54.7969 22.6562L55.1875 22.9844C55.0312 23.2031 54.8438 23.4427 54.625 23.7031C54.4062 23.9635 54.1406 24.2083 53.8281 24.4375C53.5156 24.6667 53.151 24.8594 52.7344 25.0156C52.3177 25.1719 51.8438 25.25 51.3125 25.25C50.6562 25.25 50.0729 25.0573 49.5625 24.6719C49.0521 24.276 48.7188 23.6719 48.5625 22.8594C48.2292 23.3073 47.8802 23.6823 47.5156 23.9844C47.1615 24.2865 46.7969 24.5312 46.4219 24.7188C46.0469 24.9062 45.6667 25.0417 45.2812 25.125C44.9062 25.2083 44.526 25.25 44.1406 25.25C43.6406 25.25 43.1562 25.1719 42.6875 25.0156C42.2188 24.8594 41.7969 24.6146 41.4219 24.2812C41.0573 23.9375 40.7604 23.4948 40.5312 22.9531C40.3125 22.4115 40.2031 21.75 40.2031 20.9688C40.2031 20.0208 40.3906 19.2448 40.7656 18.6406C41.1406 18.0365 41.6302 17.5312 42.2344 17.125C42.849 16.7083 43.5417 16.3542 44.3125 16.0625C45.0938 15.7708 45.8906 15.4635 46.7031 15.1406C47.3073 14.901 47.7448 14.5469 48.0156 14.0781C48.2969 13.599 48.4375 13.1094 48.4375 12.6094C48.4375 11.8385 48.2083 11.224 47.75 10.7656C47.3021 10.2969 46.6875 10.0625 45.9062 10.0625ZM66.7344 17.2188C66.7344 15.9062 66.6719 14.8594 66.5469 14.0781C66.4323 13.2865 66.276 12.6875 66.0781 12.2812C65.8802 11.8646 65.6615 11.5938 65.4219 11.4688C65.1823 11.3333 64.9375 11.2656 64.6875 11.2656C64.3854 11.2656 64.1146 11.349 63.875 11.5156C63.6458 11.6719 63.4427 11.8542 63.2656 12.0625C63.099 12.2708 62.9531 12.4792 62.8281 12.6875C62.7135 12.8958 62.6146 13.0521 62.5312 13.1562V23.5938C62.5312 23.7292 62.5104 23.8958 62.4688 24.0938C62.4271 24.2812 62.3229 24.4635 62.1562 24.6406C62 24.8073 61.7604 24.9479 61.4375 25.0625C61.125 25.1875 60.6927 25.25 60.1406 25.25C59.5885 25.25 59.151 25.1823 58.8281 25.0469C58.5156 24.9219 58.276 24.7708 58.1094 24.5938C57.9427 24.4167 57.8385 24.2344 57.7969 24.0469C57.7552 23.8594 57.7344 23.7083 57.7344 23.5938V11.5312C57.7344 11.2292 57.6615 10.9688 57.5156 10.75C57.3802 10.5208 57.1458 10.4062 56.8125 10.4062C56.6354 10.4062 56.4844 10.4375 56.3594 10.5C56.2344 10.5625 56.099 10.651 55.9531 10.7656L55.625 10.375C55.8646 10.1771 56.1302 9.98438 56.4219 9.79688C56.724 9.59896 57.0469 9.42708 57.3906 9.28125C57.7344 9.13542 58.1042 9.01562 58.5 8.92188C58.8958 8.82812 59.3125 8.78125 59.75 8.78125C60.4271 8.78125 60.9531 8.89583 61.3281 9.125C61.7031 9.34375 61.9792 9.60938 62.1562 9.92188C62.3333 10.2344 62.4375 10.5625 62.4688 10.9062C62.5104 11.2396 62.5312 11.5208 62.5312 11.75C62.9167 11.1979 63.3542 10.7031 63.8438 10.2656C64.0417 10.0781 64.2604 9.89583 64.5 9.71875C64.75 9.54167 65.0104 9.38542 65.2812 9.25C65.5625 9.10417 65.8542 8.98958 66.1562 8.90625C66.4688 8.82292 66.7865 8.78125 67.1094 8.78125C67.8177 8.78125 68.4427 8.91667 68.9844 9.1875C69.5365 9.45833 70 9.91146 70.375 10.5469C70.75 11.1823 71.0365 12.026 71.2344 13.0781C71.4323 14.1198 71.5312 15.4167 71.5312 16.9688C71.5312 18.4792 71.3958 19.7917 71.125 20.9062C70.8542 22.0208 70.5 22.9688 70.0625 23.75C69.625 24.5312 69.1302 25.1667 68.5781 25.6562C68.026 26.1562 67.4688 26.5469 66.9062 26.8281C66.3438 27.1094 65.8021 27.3021 65.2812 27.4062C64.7708 27.5208 64.3281 27.5833 63.9531 27.5938L63.7812 26.9531C64.0938 26.8802 64.3802 26.7656 64.6406 26.6094C64.9115 26.4531 65.1562 26.224 65.375 25.9219C65.5938 25.6198 65.7865 25.2396 65.9531 24.7812C66.1198 24.3125 66.2604 23.7292 66.375 23.0312C66.5 22.3333 66.5885 21.5104 66.6406 20.5625C66.7031 19.6042 66.7344 18.4896 66.7344 17.2188ZM82.0469 16.9062C82.0469 16.6458 81.9635 16.4479 81.7969 16.3125C81.6302 16.1771 81.4167 16.1094 81.1562 16.1094C80.7917 16.1094 80.4427 16.1927 80.1094 16.3594C79.7865 16.526 79.5 16.7708 79.25 17.0938C79 17.4167 78.8021 17.8177 78.6562 18.2969C78.5104 18.7656 78.4375 19.3125 78.4375 19.9375C78.4375 20.5417 78.4792 21.0417 78.5625 21.4375C78.6562 21.8333 78.776 22.151 78.9219 22.3906C79.0781 22.6198 79.2552 22.7812 79.4531 22.875C79.651 22.9688 79.8594 23.0156 80.0781 23.0156C80.349 23.0156 80.6042 22.9479 80.8438 22.8125C81.0833 22.6667 81.2917 22.4844 81.4688 22.2656C81.6458 22.0469 81.7865 21.8021 81.8906 21.5312C81.9948 21.2604 82.0469 20.9896 82.0469 20.7188V16.9062ZM79.5625 10.0625C79.2083 10.0625 78.8802 10.1042 78.5781 10.1875C78.276 10.2708 78.0156 10.375 77.7969 10.5C77.5781 10.625 77.4062 10.7656 77.2812 10.9219C77.1562 11.0677 77.0938 11.2083 77.0938 11.3438C77.0938 11.5 77.1719 11.6146 77.3281 11.6875C77.4948 11.75 77.6771 11.8281 77.875 11.9219C78.0729 12.0052 78.25 12.1302 78.4062 12.2969C78.5729 12.4531 78.6562 12.6979 78.6562 13.0312C78.6562 13.25 78.6094 13.4531 78.5156 13.6406C78.4323 13.8177 78.3125 13.9792 78.1562 14.125C78.0104 14.2604 77.8333 14.3698 77.625 14.4531C77.4271 14.526 77.2188 14.5625 77 14.5625C76.4167 14.5625 75.9427 14.3646 75.5781 13.9688C75.224 13.5729 75.0469 13.0469 75.0469 12.3906C75.0469 11.7552 75.2135 11.2135 75.5469 10.7656C75.8802 10.3073 76.3125 9.93229 76.8438 9.64062C77.3854 9.34896 77.9948 9.13542 78.6719 9C79.349 8.85417 80.026 8.78125 80.7031 8.78125C81.5156 8.78125 82.2917 8.86979 83.0312 9.04688C83.7708 9.22396 84.4219 9.50521 84.9844 9.89062C85.5573 10.276 86.0104 10.7656 86.3438 11.3594C86.6875 11.9531 86.8594 12.6719 86.8594 13.5156V22.3438C86.8594 22.4375 86.8646 22.5417 86.875 22.6562C86.8854 22.7708 86.9115 22.875 86.9531 22.9688C86.9948 23.0625 87.0573 23.1406 87.1406 23.2031C87.224 23.2656 87.3438 23.2969 87.5 23.2969C87.6875 23.2969 87.8594 23.2292 88.0156 23.0938C88.1823 22.9479 88.3281 22.8021 88.4531 22.6562L88.8438 22.9844C88.6875 23.2031 88.5 23.4427 88.2812 23.7031C88.0625 23.9635 87.7969 24.2083 87.4844 24.4375C87.1719 24.6667 86.8073 24.8594 86.3906 25.0156C85.974 25.1719 85.5 25.25 84.9688 25.25C84.3125 25.25 83.7292 25.0573 83.2188 24.6719C82.7083 24.276 82.375 23.6719 82.2188 22.8594C81.8854 23.3073 81.5365 23.6823 81.1719 23.9844C80.8177 24.2865 80.4531 24.5312 80.0781 24.7188C79.7031 24.9062 79.3229 25.0417 78.9375 25.125C78.5625 25.2083 78.1823 25.25 77.7969 25.25C77.2969 25.25 76.8125 25.1719 76.3438 25.0156C75.875 24.8594 75.4531 24.6146 75.0781 24.2812C74.7135 23.9375 74.4167 23.4948 74.1875 22.9531C73.9688 22.4115 73.8594 21.75 73.8594 20.9688C73.8594 20.0208 74.0469 19.2448 74.4219 18.6406C74.7969 18.0365 75.2865 17.5312 75.8906 17.125C76.5052 16.7083 77.1979 16.3542 77.9688 16.0625C78.75 15.7708 79.5469 15.4635 80.3594 15.1406C80.9635 14.901 81.401 14.5469 81.6719 14.0781C81.9531 13.599 82.0938 13.1094 82.0938 12.6094C82.0938 11.8385 81.8646 11.224 81.4062 10.7656C80.9583 10.2969 80.3438 10.0625 79.5625 10.0625Z" fill="#666666"/>
</svg>
